<svg width="20" height="20" viewBox="0 0 20 20" fill="none" xmlns="http://www.w3.org/2000/svg">
<g clip-path="url(#clip0_17_309)">
<path d="M13.3333 11.6667H14.5833V14.0167L16.6166 15.1917L15.9916 16.275L13.3333 14.7417V11.6667ZM14.1666 10C13.0615 10 12.0017 10.439 11.2203 11.2204C10.4389 12.0018 9.99992 13.0616 9.99992 14.1667C9.99992 15.2717 10.4389 16.3316 11.2203 17.113C12.0017 17.8944 13.0615 18.3333 14.1666 18.3333C15.2717 18.3333 16.3315 17.8944 17.1129 17.113C17.8943 16.3316 18.3333 15.2717 18.3333 14.1667C18.3333 13.0616 17.8943 12.0018 17.1129 11.2204C16.3315 10.439 15.2717 10 14.1666 10ZM14.1666 8.33334C15.7137 8.33334 17.1974 8.94793 18.2914 10.0419C19.3853 11.1358 19.9999 12.6196 19.9999 14.1667C19.9999 15.7138 19.3853 17.1975 18.2914 18.2915C17.1974 19.3854 15.7137 20 14.1666 20C11.8416 20 9.83325 18.6333 8.89159 16.6667H0.833252V14.1667C0.833252 11.95 5.27492 10.8333 7.49992 10.8333C7.99992 10.8333 8.61659 10.8917 9.26659 11C9.79515 10.1812 10.5207 9.50802 11.3767 9.04214C12.2327 8.57627 13.192 8.33257 14.1666 8.33334ZM8.33325 14.1667C8.33325 13.5833 8.41658 13.0167 8.57492 12.5C8.22492 12.4417 7.85825 12.4167 7.49992 12.4167C5.02492 12.4167 2.41659 13.6333 2.41659 14.1667V15.0833H8.40825C8.35812 14.7804 8.33304 14.4738 8.33325 14.1667ZM7.49992 3.33334C8.38397 3.33334 9.23182 3.68453 9.85694 4.30965C10.4821 4.93478 10.8333 5.78262 10.8333 6.66668C10.8333 7.55073 10.4821 8.39858 9.85694 9.0237C9.23182 9.64882 8.38397 10 7.49992 10C6.61586 10 5.76802 9.64882 5.1429 9.0237C4.51777 8.39858 4.16659 7.55073 4.16659 6.66668C4.16659 5.78262 4.51777 4.93478 5.1429 4.30965C5.76802 3.68453 6.61586 3.33334 7.49992 3.33334ZM7.49992 4.91668C7.03579 4.91668 6.59067 5.10105 6.26248 5.42924C5.93429 5.75743 5.74992 6.20255 5.74992 6.66668C5.74992 7.13081 5.93429 7.57593 6.26248 7.90411C6.59067 8.2323 7.03579 8.41668 7.49992 8.41668C7.96405 8.41668 8.40917 8.2323 8.73736 7.90411C9.06554 7.57593 9.24992 7.13081 9.24992 6.66668C9.24992 6.20255 9.06554 5.75743 8.73736 5.42924C8.40917 5.10105 7.96405 4.91668 7.49992 4.91668Z" fill="#5459EA"/>
</g>
<defs>
<clipPath id="clip0_17_309">
<rect width="20" height="20" fill="white"/>
</clipPath>
</defs>
</svg>
