<svg width="20" height="20" viewBox="0 0 20 20" fill="none" xmlns="http://www.w3.org/2000/svg">
<path d="M14.4531 3.14453C13.2461 3.14453 12.2656 4.125 12.2656 5.33203C12.2656 6.31055 12.9121 7.14062 13.7988 7.41992V9.29297L6.25 11.7656V6.21289C7.11328 5.91992 7.73438 5.10156 7.73438 4.14062C7.73438 2.93359 6.75391 1.95312 5.54688 1.95312C4.33984 1.95312 3.35938 2.93359 3.35938 4.14062C3.35938 5.10156 3.98047 5.91797 4.84375 6.21289V13.7891C3.98047 14.082 3.35938 14.9004 3.35938 15.8613C3.35938 17.0684 4.33984 18.0488 5.54688 18.0488C6.75391 18.0488 7.73438 17.0684 7.73438 15.8613C7.73438 14.9004 7.11328 14.084 6.25 13.7891V13.2461L14.5215 10.5371C14.7201 10.4725 14.8931 10.3466 15.0156 10.1774C15.1381 10.0082 15.2038 9.80457 15.2031 9.5957V7.38672C16.041 7.07812 16.6406 6.27344 16.6406 5.33203C16.6406 4.125 15.6602 3.14453 14.4531 3.14453ZM4.60938 4.14062C4.61438 3.8953 4.71536 3.66171 4.89063 3.48998C5.0659 3.31825 5.3015 3.22207 5.54688 3.22207C5.79225 3.22207 6.02785 3.31825 6.20312 3.48998C6.37839 3.66171 6.47937 3.8953 6.48438 4.14062C6.47937 4.38595 6.37839 4.61954 6.20312 4.79127C6.02785 4.963 5.79225 5.05918 5.54688 5.05918C5.3015 5.05918 5.0659 4.963 4.89063 4.79127C4.71536 4.61954 4.61438 4.38595 4.60938 4.14062ZM6.48438 15.8594C6.47937 16.1047 6.37839 16.3383 6.20312 16.51C6.02785 16.6817 5.79225 16.7779 5.54688 16.7779C5.3015 16.7779 5.0659 16.6817 4.89063 16.51C4.71536 16.3383 4.61438 16.1047 4.60938 15.8594C4.61438 15.614 4.71536 15.3805 4.89063 15.2087C5.0659 15.037 5.3015 14.9408 5.54688 14.9408C5.79225 14.9408 6.02785 15.037 6.20312 15.2087C6.37839 15.3805 6.47937 15.614 6.48438 15.8594ZM14.4531 6.26953C14.2078 6.26452 13.9742 6.16355 13.8025 5.98828C13.6308 5.81301 13.5346 5.57741 13.5346 5.33203C13.5346 5.08665 13.6308 4.85105 13.8025 4.67578C13.9742 4.50051 14.2078 4.39954 14.4531 4.39453C14.6985 4.39954 14.932 4.50051 15.1038 4.67578C15.2755 4.85105 15.3717 5.08665 15.3717 5.33203C15.3717 5.57741 15.2755 5.81301 15.1038 5.98828C14.932 6.16355 14.6985 6.26452 14.4531 6.26953Z" fill="white"/>
</svg>
