<svg width="20" height="20" viewBox="0 0 20 20" fill="none" xmlns="http://www.w3.org/2000/svg">
<path fill-rule="evenodd" clip-rule="evenodd" d="M6.25 3.95833C6.25 3.77583 8.13167 2.5 10 2.5C11.8683 2.5 13.75 3.77625 13.75 3.95833C13.75 4.60833 13.6808 4.99333 13.6225 5.20292C13.5837 5.34042 13.455 5.41667 13.3121 5.41667H6.68792C6.545 5.41667 6.41625 5.34042 6.3775 5.20292C6.31917 4.99333 6.25 4.60833 6.25 3.95833ZM9.375 3.75C9.26449 3.75 9.15851 3.7939 9.08037 3.87204C9.00223 3.95018 8.95833 4.05616 8.95833 4.16667C8.95833 4.27717 9.00223 4.38315 9.08037 4.46129C9.15851 4.53943 9.26449 4.58333 9.375 4.58333H10.625C10.7355 4.58333 10.8415 4.53943 10.9196 4.46129C10.9978 4.38315 11.0417 4.27717 11.0417 4.16667C11.0417 4.05616 10.9978 3.95018 10.9196 3.87204C10.8415 3.7939 10.7355 3.75 10.625 3.75H9.375Z" fill="white"/>
<path fill-rule="evenodd" clip-rule="evenodd" d="M6.68241 8.0075C5.29491 7.57833 5.64491 6.81167 6.17408 6.25H13.9416C14.3649 6.79083 14.592 7.52042 13.3124 7.95708C13.3647 8.42126 13.3189 8.89124 13.1779 9.33656C13.0368 9.78188 12.8038 10.1926 12.4939 10.5421C12.1839 10.8915 11.804 11.172 11.3787 11.3652C10.9534 11.5584 10.4923 11.66 10.0252 11.6635C9.55807 11.6671 9.09545 11.5724 8.66729 11.3856C8.23914 11.1988 7.85502 10.9242 7.53984 10.5794C7.22467 10.2347 6.98547 9.82752 6.83775 9.38438C6.69004 8.94124 6.63712 8.47199 6.68241 8.00708V8.0075ZM9.88658 8.33333C10.9874 8.33333 11.8407 8.275 12.4949 8.17333C12.5164 8.51305 12.4683 8.85358 12.3536 9.17405C12.2388 9.49452 12.0598 9.78818 11.8276 10.037C11.5953 10.2859 11.3147 10.4847 11.0029 10.6212C10.6911 10.7578 10.3547 10.8293 10.0143 10.8312C9.67391 10.8332 9.33671 10.7656 9.02336 10.6326C8.71 10.4997 8.42711 10.3041 8.192 10.058C7.9569 9.81181 7.77454 9.52023 7.65611 9.2011C7.53767 8.88197 7.48565 8.54202 7.50324 8.20208C8.11283 8.28625 8.89408 8.33333 9.88658 8.33333Z" fill="white"/>
<path fill-rule="evenodd" clip-rule="evenodd" d="M13.507 14.4167C13.1301 13.8287 12.6113 13.3449 11.9985 13.01C11.3856 12.675 10.6983 12.4997 9.99989 12.5C9.30118 12.4996 8.6136 12.675 8.00049 13.0101C7.38738 13.3452 6.86847 13.8292 6.49156 14.4175C6.35168 14.2021 6.13685 14.0462 5.88864 13.98L5.08364 13.7646C4.81683 13.6931 4.53252 13.7304 4.29326 13.8685C4.054 14.0066 3.87938 14.234 3.80781 14.5008L3.48448 15.7083C3.44906 15.8405 3.44003 15.9783 3.45789 16.1139C3.47574 16.2496 3.52014 16.3804 3.58855 16.4988C3.65696 16.6173 3.74803 16.7211 3.85657 16.8044C3.96511 16.8877 4.089 16.9488 4.22114 16.9842L5.02573 17.2C5.16106 17.2365 5.30238 17.2451 5.44115 17.2255C5.57993 17.2059 5.7133 17.1584 5.83323 17.0858C5.83356 17.1963 5.87777 17.3022 5.95615 17.3801C6.03452 17.458 6.14064 17.5016 6.25114 17.5012C6.36165 17.5009 6.4675 17.4567 6.54541 17.3783C6.62331 17.3 6.66689 17.1938 6.66656 17.0833V16.6667C6.66656 16.5079 6.67781 16.3517 6.69906 16.1988L8.86739 16.78C8.96804 16.9954 9.12806 17.1777 9.32865 17.3054C9.52925 17.4331 9.7621 17.5009 9.99989 17.5009C10.2377 17.5009 10.4705 17.4331 10.6711 17.3054C10.8717 17.1777 11.0317 16.9954 11.1324 16.78L13.3007 16.1988C13.322 16.3517 13.3332 16.5079 13.3332 16.6667V17.0833C13.3327 17.1938 13.376 17.3 13.4538 17.3786C13.5315 17.4571 13.6373 17.5015 13.7478 17.5021C13.8583 17.5026 13.9645 17.4593 14.043 17.3815C14.1216 17.3038 14.166 17.198 14.1666 17.0875C14.3999 17.2275 14.6882 17.2763 14.972 17.2L15.777 16.9846C15.9091 16.9492 16.033 16.8881 16.1415 16.8048C16.2501 16.7216 16.3412 16.6177 16.4096 16.4992C16.478 16.3808 16.5224 16.25 16.5402 16.1144C16.5581 15.9787 16.5491 15.8409 16.5136 15.7088L16.1899 14.5013C16.1183 14.2344 15.9437 14.007 15.7044 13.8689C15.4652 13.7308 15.1809 13.6935 14.9141 13.765L14.1091 13.9804C13.8614 14.0464 13.647 14.2016 13.507 14.4163V14.4167ZM6.91781 15.3946C7.14289 14.8502 7.50806 14.3752 7.97621 14.0177C8.44437 13.6602 8.99882 13.433 9.58323 13.3592V15.0713C9.3965 15.1375 9.22814 15.2471 9.09197 15.391C8.9558 15.5349 8.8557 15.7091 8.79989 15.8992L6.91781 15.395V15.3946ZM13.082 15.3946C12.8569 14.8503 12.4917 14.3752 12.0235 14.0177C11.5554 13.6602 11.001 13.433 10.4166 13.3592V15.0713C10.7932 15.2046 11.0874 15.5129 11.1999 15.8992L13.082 15.395V15.3946ZM9.99989 16.6667C10.1104 16.6667 10.2164 16.6228 10.2945 16.5446C10.3727 16.4665 10.4166 16.3605 10.4166 16.25C10.4166 16.1395 10.3727 16.0335 10.2945 15.9554C10.2164 15.8772 10.1104 15.8333 9.99989 15.8333C9.88939 15.8333 9.7834 15.8772 9.70526 15.9554C9.62712 16.0335 9.58323 16.1395 9.58323 16.25C9.58323 16.3605 9.62712 16.4665 9.70526 16.5446C9.7834 16.6228 9.88939 16.6667 9.99989 16.6667Z" fill="white"/>
</svg>
