<?xml version="1.0" standalone="no"?>
<!DOCTYPE svg PUBLIC "-//W3C//DTD SVG 20010904//EN"
 "http://www.w3.org/TR/2001/REC-SVG-20010904/DTD/svg10.dtd">
<svg version="1.0" xmlns="http://www.w3.org/2000/svg"
 width="500.000000pt" height="500.000000pt" viewBox="0 0 500.000000 500.000000"
 preserveAspectRatio="xMidYMid meet">

<g transform="translate(0.000000,500.000000) scale(0.100000,-0.100000)"
fill="#000000" stroke="none">
<path d="M0 2500 l0 -2500 2500 0 2500 0 0 2500 0 2500 -2500 0 -2500 0 0
-2500z m4208 2138 c108 -39 177 -84 263 -168 62 -62 85 -94 122 -170 82 -168
77 -53 77 -1797 0 -1033 -4 -1570 -11 -1613 -33 -203 -178 -400 -363 -490
-165 -81 -18 -75 -1791 -75 l-1580 0 -80 23 c-125 36 -209 86 -301 177 -68 68
-89 97 -127 176 -25 52 -51 119 -59 149 -11 45 -13 349 -13 1660 l0 1605 27
80 c80 237 251 395 498 464 22 6 634 9 1650 8 l1615 -2 73 -27z"/>
<path d="M910 3045 l0 -847 473 5 c507 4 517 5 677 61 117 41 215 102 305 191
173 169 244 366 232 637 -6 144 -30 237 -88 348 -116 223 -319 364 -609 426
-60 13 -169 17 -532 21 l-458 5 0 -847z m900 505 c257 -56 416 -277 396 -548
-15 -197 -108 -342 -269 -422 -96 -47 -189 -60 -428 -60 l-209 0 0 526 0 527
228 -6 c125 -2 252 -10 282 -17z"/>
<path d="M2607 2773 c-4 -3 -7 -384 -7 -845 l0 -838 195 0 195 0 0 345 0 345
385 0 385 0 0 -345 0 -345 195 0 195 0 0 845 0 845 -195 0 -195 0 0 -335 0
-335 -382 2 -383 3 -3 333 -2 332 -188 0 c-104 0 -192 -3 -195 -7z"/>
</g>
</svg>
